<?xml version="1.0" encoding="UTF-8"?>
<svg width="1257px" height="243px" viewBox="0 0 1257 243" version="1.1" xmlns="http://www.w3.org/2000/svg" xmlns:xlink="http://www.w3.org/1999/xlink">
    <title>Mexico</title>
    <defs>
        <linearGradient x1="69.9895719%" y1="11.5360457%" x2="-1.91430067%" y2="145.701836%" id="linearGradient-1">
            <stop stop-color="#B07424" offset="5%"></stop>
            <stop stop-color="#985424" offset="56%"></stop>
            <stop stop-color="#472213" offset="95%"></stop>
        </linearGradient>
        <linearGradient x1="57.0754162%" y1="-1.60310922%" x2="31.4667727%" y2="122.521038%" id="linearGradient-2">
            <stop stop-color="#B07424" offset="5%"></stop>
            <stop stop-color="#985424" offset="56%"></stop>
            <stop stop-color="#472213" offset="95%"></stop>
        </linearGradient>
        <linearGradient x1="213.2%" y1="-16.1082863%" x2="-53.2%" y2="97.8827805%" id="linearGradient-3">
            <stop stop-color="#f2f2f2" offset="8%"></stop>
            <stop stop-color="#d1d1cf" offset="50%"></stop>
            <stop stop-color="#474B00" offset="95%"></stop>
        </linearGradient>
        <linearGradient x1="99.1079814%" y1="25.5213534%" x2="-26.6400663%" y2="109.347587%" id="linearGradient-4">
            <stop stop-color="#f2f2f2" offset="8%"></stop>
            <stop stop-color="#d1d1cf" offset="50%"></stop>
            <stop stop-color="#474B00" offset="95%"></stop>
        </linearGradient>
    </defs>
    <g id="Page-1" stroke="none" stroke-width="1" fill="none" fill-rule="evenodd">
        <g id="Year-on-iNat---Network" transform="translate(-214.000000, -345.000000)" fill-rule="nonzero">
            <g id="Mexico" transform="translate(214.000000, 345.000000)">
                <path d="M357.231903,112.929769 C348.091802,103.548645 335.141983,98.8686873 322.098654,100.232903 C315.134585,100.103892 308.213412,101.346516 301.731554,103.8896 L302.546238,100.131328 L274.439638,100.131328 L244.5,239.79685 L272.912106,239.79685 L293.279207,146.652644 C298.880159,123.290411 311.507762,120.547888 320.672957,120.547888 C325.218166,120.016551 329.757364,121.588109 332.995053,124.814035 C336.440175,131.261784 336.994931,138.860939 334.522586,145.738469 L314.155485,240 L342.771262,240 L362.52735,148.582567 C366.432552,136.524861 364.47426,123.34021 357.231903,112.929769 L357.231903,112.929769 Z" id="Path" fill="#f2f2f2"></path>
                <path d="M466.466685,112.900294 C457.368967,103.582445 444.527384,98.9136902 431.573279,100.21426 C418.971057,99.6145587 406.49404,102.948261 395.868398,109.754158 L391.405288,112.900294 L406.113264,133.908367 L410.576374,128.529488 C415.364487,123.067952 422.396016,120.111642 429.646027,120.511915 C434.17333,119.981031 438.694645,121.551248 441.91958,124.774422 C445.317751,131.231291 445.833452,138.8235 443.33966,145.681006 L443.33966,146.391424 L421.531281,146.391424 C390.492379,146.391424 370.81412,162.020618 364.423758,191.655194 C360.635246,203.618377 362.502236,216.656902 369.495474,227.074601 C378.749983,236.475055 391.780918,241.144778 404.896052,239.760635 C411.450697,239.878843 417.964612,238.706405 424.067139,236.310033 L423.357099,239.862123 L451.961577,239.862123 L471.436967,148.522678 C475.41497,136.522032 473.577412,123.352117 466.466685,112.900294 L466.466685,112.900294 Z M392.216762,194.090912 C397.491347,169.632238 410.373506,166.790567 419.705463,166.790567 L419.705463,161.3102 L419.705463,161.3102 L419.705463,166.689079 L438.87655,166.689079 L433.196228,191.85817 C427.921643,216.621308 415.140919,219.46298 405.910395,219.46298 C401.27543,219.972719 396.657022,218.370323 393.33254,215.098984 C390.15642,208.471279 389.89892,200.815783 392.622499,193.989424 L392.216762,194.090912 Z" id="Shape" fill="#f2f2f2"></path>
                <path d="M532.955768,211.966171 C528.227156,217.441951 521.234384,220.406363 514.025653,219.991122 C509.408237,220.43032 504.828209,218.836576 501.473064,215.623111 C498.087003,209.091002 497.537598,201.446175 499.954606,194.494124 L515.645342,120.948999 L552.189574,120.948999 L569.5,100.632666 L519.998256,100.632666 L528.602854,60 L498.233686,70.6660748 L491.957391,100.226339 L483.352794,100.226339 L479.10111,120.542672 L487.604477,120.542672 L472.419894,191.649838 C468.638992,203.62403 470.502232,216.674553 477.481421,227.101839 C486.50649,236.38248 499.240394,241.052827 512.102273,239.799547 L512.102273,239.799547 C524.807822,240.221218 537.330113,236.671578 547.937891,229.64138 L552.392035,226.492349 L537.511143,206.176016 L532.955768,211.966171 Z" id="Path" fill="#f2f2f2"></path>
                <path d="M649.948527,101.101948 L629.699256,194.588072 C624.333199,218.036064 611.879897,220.788654 602.767725,220.788654 C598.171858,221.298797 593.593605,219.687181 590.314423,216.404899 C586.88447,209.898259 586.333219,202.238295 588.795728,195.301707 L609.044999,101 L580.999758,101 L561.459211,193.466646 C557.61822,205.445486 559.486543,218.539104 566.521529,228.944478 C575.535696,238.351091 588.331039,243.083985 601.249029,241.789899 C608.175816,241.957927 615.064472,240.709379 621.498301,238.119779 L620.68833,241.789899 L649.239803,241.789899 L678.5,101.713635 L649.948527,101.101948 Z" id="Path" fill="#f2f2f2"></path>
                <path d="M778.033981,112.306042 C768.582351,104.767441 756.592089,101.139992 744.538835,102.17266 C737.852954,102.116375 731.213371,103.284122 724.94925,105.61801 L725.761253,102.17266 L697.44263,102.17266 L667.5,241 L695.818623,241 L716.118711,148.076882 C721.701236,124.668769 734.28729,122.034089 743.42233,122.034089 C752.55737,122.034089 756.109885,125.884775 757.327891,128.722122 L760.271403,135.714156 L782.5,116.055394 L778.033981,112.306042 Z" id="Path" fill="#f2f2f2"></path>
                <path d="M864.401354,114.822912 C855.223305,105.489691 842.249075,100.853434 829.194953,102.242135 C816.550901,101.663826 804.037323,104.995677 793.376267,111.779176 L788.886176,114.822912 L803.683069,135.926151 L808.275208,130.548884 C813.032534,125.06686 820.088461,122.103237 827.358097,122.533711 C831.906069,122.062273 836.429734,123.623397 839.705849,126.794942 C843.158144,133.235261 843.714055,140.82566 841.236563,147.695265 L841.236563,148.405471 L818.990199,148.405471 C787.661605,148.405471 767.96643,164.029984 761.435388,193.655685 C757.623973,205.615286 759.50225,218.649906 766.537765,229.064485 C775.823176,238.501034 788.952438,243.17632 802.152356,241.74672 C808.774856,241.805189 815.350255,240.635338 821.541388,238.297152 L820.725007,241.848178 L849.604461,241.848178 L869.401683,150.536086 C873.43764,138.508704 871.587837,125.297107 864.401354,114.822912 L864.401354,114.822912 Z M789.702556,195.989216 C795.009028,171.537867 807.969065,168.697047 817.357439,168.697047 L817.357439,163.116863 L817.357439,163.116863 L817.357439,168.494131 L836.644423,168.494131 L831.337951,193.554227 C826.031479,218.208492 813.17349,221.049313 803.785116,221.049313 C799.170519,221.568682 794.564636,220.005029 791.233269,216.788082 C787.830181,210.333723 787.275796,202.764168 789.702556,195.887758 L789.702556,195.989216 Z" id="Shape" fill="#f2f2f2"></path>
                <polygon id="Path" fill="#985424" points="896.804414 71.8629442 860.5 241 888.952055 241 927.5 61"></polygon>
                <polygon id="Path" fill="#985424" points="970.5 73.1025641 942.515198 73 937.5 97 965.384498 97"></polygon>
                <polygon id="Path" fill="#985424" points="936.311189 102 906.5 241.898256 934.79021 242 964.5 102"></polygon>
                <path d="M1017.69907,164.063953 C1002.87254,155.924419 996.170144,147.784884 997.89652,139.950581 C999.37048,128.833718 1009.54388,121.007182 1020.64406,122.450581 C1025.24886,122.022235 1029.83895,123.409175 1033.43955,126.31686 C1035.35104,129.696209 1035.72092,133.735577 1034.45507,137.406977 L1033.03335,143.918605 L1061.36622,143.918605 L1062.28019,139.645349 C1064.88343,130.85049 1063.27066,121.343402 1057.91347,113.90407 C1051.51573,105.968023 1040.0404,102.101744 1022.26889,102 C985.30413,102 973.422602,121.127907 970.071401,137.101744 C966.720201,153.075581 976.367596,167.625 998.505829,179.427326 L1000.33376,180.444767 C1015.16028,188.380814 1021.86268,196.418605 1020.1363,204.252907 C1018.56301,215.332539 1008.35501,223.059884 997.287211,221.549419 C992.709675,222.017673 988.136186,220.624695 984.59327,217.68314 C982.616813,214.213406 982.246092,210.053453 983.577754,206.287791 L984.999476,199.776163 L956.6666,199.776163 L955.752636,204.151163 C953.098247,213.008968 954.712504,222.600049 960.119352,230.09593 C966.618649,238.031977 978.093972,242 995.25618,242 L995.25618,242 C1032.32249,242 1044.20402,222.770349 1047.65677,206.593023 C1051.10952,190.415698 1041.15747,176.578488 1017.69907,164.063953 Z" id="Path" fill="#985424"></path>
                <path d="M1120.43464,213.557801 C1115.70412,219.029839 1108.70852,221.992226 1101.49688,221.577269 C1096.87266,222.058084 1092.2737,220.459492 1088.93921,217.212242 C1085.55178,210.684597 1085.00216,203.044992 1087.42014,196.097692 L1103.62358,122.907355 L1140.28385,122.907355 L1157.5,102.604903 L1107.97825,102.604903 L1116.58633,62 L1086.20488,72.7602993 L1079.92605,102.300366 L1071.31798,102.300366 L1067.06458,122.602818 L1075.57138,122.602818 L1060.48193,193.661398 C1056.60668,205.619567 1058.47661,218.702664 1065.5455,229.089176 C1074.49267,238.424433 1087.23259,243.105596 1100.07908,241.778208 L1100.07908,241.778208 C1112.76046,242.219028 1125.26135,238.669279 1135.82791,231.626982 L1140.28385,228.480102 L1125.39694,208.177651 L1120.43464,213.557801 Z" id="Path" fill="#985424"></path>
                <path d="M1249.20516,115.989445 C1240.04963,106.597981 1227.11678,101.896902 1214.07492,103.219636 C1201.58842,102.714245 1189.25007,106.0764 1178.74221,112.847667 L1174.28765,115.888097 L1188.96743,136.968416 L1193.52323,131.596989 C1198.25228,126.133821 1205.24569,123.176237 1212.45509,123.590522 C1216.97371,123.060373 1221.48636,124.628415 1224.70511,127.847125 C1228.14256,134.276836 1228.69446,141.86437 1226.22371,148.724748 L1226.22371,149.434182 L1204.55838,149.434182 C1176.53822,146.994754 1151.48633,166.870855 1147.45909,194.736599 C1143.61834,206.644927 1145.48654,219.66147 1152.52108,230.005594 C1161.70792,239.413553 1174.67856,244.114823 1187.75256,242.775403 C1194.36604,242.848696 1200.93157,241.644307 1207.08937,239.228234 L1206.27945,242.775403 L1234.93034,242.775403 L1254.57087,151.562484 C1258.424,139.516163 1256.43954,126.3598 1249.20516,115.989445 L1249.20516,115.989445 Z M1175.09757,197.067595 C1180.26081,172.541455 1193.21951,169.70372 1202.53358,169.70372 L1202.53358,164.332292 L1202.53358,164.332292 L1202.53358,169.70372 L1221.66791,169.70372 L1216.3022,194.837946 C1211.03773,219.465435 1198.2815,222.30317 1188.96743,222.30317 C1184.36846,222.840667 1179.77767,221.234046 1176.51493,217.945219 C1173.11851,211.46233 1172.60407,203.847913 1175.09757,196.966248 L1175.09757,197.067595 Z" id="Shape" fill="#985424"></path>
                <path d="M203.736602,57.3723317 L102.084539,1.87418582 C98.6016548,-0.0634250904 94.4841159,-0.520716353 90.6596868,0.605348981 C86.8352576,1.73141431 83.6256763,4.34610363 81.7541262,7.86027468 L74.4351776,20.9485029 L74.4351776,20.9485029 L3.99029781,149.801602 C1.88916624,153.889147 0.742335718,158.39839 0.635779726,162.991289 C-0.493421888,174.798408 5.49322391,186.151447 15.8835892,191.907142 L92.0209845,233.302469 C98.9861118,237.129243 107.191895,238.028169 114.822814,235.800361 C122.453733,233.572554 128.880719,228.401666 132.68181,221.43175 L196.824262,102.115809 L209.734074,78.8816679 C210.887011,76.7288431 211.48113,74.3219958 211.462159,71.8809877 C211.512614,71.4088508 211.512614,70.9326968 211.462159,70.4605599 C211.517403,65.005605 208.543863,59.9679917 203.736602,57.3723317 Z M79.0095205,191.907142 C78.2375784,194.634658 76.3577841,196.915561 73.8252652,198.197609 C72.3060174,199.056991 70.5905772,199.511244 68.8443141,199.516577 C67.7987238,199.658533 66.7386905,199.658533 65.6931002,199.516577 C60.1178948,197.677845 57.0440518,191.722298 58.7807599,186.123972 C59.5802018,183.497517 61.3645306,181.280426 63.761711,179.934965 C66.2741956,178.64285 69.1947428,178.387787 71.893876,179.224751 C74.607865,179.971698 76.8899541,181.8086 78.1963039,184.297707 C79.4521185,186.631005 79.7439735,189.361953 79.0095205,191.907142 L79.0095205,191.907142 Z M200.382172,75.12768 C200.372997,77.3145818 199.850787,79.4689532 198.857303,81.4181463 L187.573924,101.709973 L172.631071,129.00248 L172.631071,129.00248 L167.65012,138.539638 L167.65012,138.539638 L146.099882,178.1087 L146.099882,178.1087 L139.899106,189.472123 C136.452228,195.776608 128.559138,198.130986 122.211647,194.747998 L32.1479193,145.844696 C27.9592618,143.505339 25.3858391,139.068773 25.4388831,134.278355 C25.387857,133.874116 25.387857,133.465084 25.4388831,133.060845 C25.3875364,130.899306 25.9138296,128.763109 26.9636641,126.871838 L38.2470431,106.580011 L52.3766799,80.5050141 L58.0691954,69.8518051 L58.0691954,69.8518051 L79.6194328,30.3842023 L79.6194328,30.3842023 L85.8202087,18.9193202 C87.4740338,15.8878034 90.2689818,13.6381559 93.5877174,12.6672692 C96.9064531,11.6963825 100.475904,12.0841432 103.507668,13.7449044 L193.571396,62.6482066 C197.783184,64.9269482 200.399658,69.3314316 200.382172,74.1130887 L200.382172,75.12768 Z M66.6079687,196.269885 C68.5613683,196.991436 70.7397415,196.766515 72.5037884,195.66113 C74.3379671,194.726137 75.7003225,193.072363 76.2649147,191.095469 C77.07911,188.117335 76.0599299,184.939942 73.6642086,182.987515 C71.2684874,181.035088 67.9455422,180.673805 65.1848399,182.065606 C63.4134837,183.076693 62.0752493,184.701187 61.4237135,186.631267 C60.7992251,188.592213 61.0201816,190.724071 62.0336259,192.515897 C62.9604549,194.354552 64.6214149,195.717638 66.6079687,196.269885 Z" id="Shape" fill="url(#linearGradient-1)"></path>
                <path d="M161.5,59.5509774 C143.150422,54.2522572 112.669734,47.9345522 94.1162718,59.5509774 C58.3345946,81.4591479 52.0141844,119.161581 61.3928576,157.7811 L74.2375622,164.710195 C74.2848701,163.963688 74.2848701,163.214937 74.2375622,162.468429 C71.641264,146.683073 72.230498,130.538043 75.9705779,114.983744 C75.5118336,122.823226 75.5118336,130.682807 75.9705779,138.522289 C76.1154605,146.289544 77.141442,154.015297 79.0288409,161.551343 C79.5324168,163.687117 80.1448682,165.795769 80.8637987,167.869048 L123.373655,191 C176.383547,139.439376 85.2473091,75.2433414 161.5,59.5509774 Z M123.067828,73.6129659 C120.856363,74.5945293 118.259806,73.7738718 117.014889,71.6998983 C115.769972,69.6259249 116.267462,66.9496336 118.174607,65.4610885 C120.386072,64.4795252 122.98263,65.3001826 124.227547,67.3741561 C125.472464,69.4481295 124.974974,72.1244208 123.067828,73.6129659 L123.067828,73.6129659 Z" id="Shape" fill="url(#linearGradient-2)"></path>
                <path d="M136.976,186.578668 L153.5,156 C133.914264,156.008793 115.300359,164.528019 102.5,179.341717 L122.9,190.655824 C125.297918,192.025842 128.149332,192.365455 130.802303,191.597014 C133.455275,190.828573 135.68295,189.017787 136.976,186.578668 L136.976,186.578668 Z" id="Path" fill="url(#linearGradient-3)"></path>
                <path d="M216.767716,131 C212.692795,158.654358 194.457525,157.230972 171.637969,156.315938 L149.124032,196.984111 C155.029336,194.478025 160.748643,191.556107 166.238699,188.240453 C173.095624,184.378731 179.575779,179.885682 185.594572,174.819956 C174.797208,186.759863 161.700792,196.407042 147.086572,203.186007 L145.864095,203.694359 L134.86181,224.028445 C133.89514,225.755616 132.769695,227.389371 131.5,228.908626 C178.055969,230.840364 235.81797,202.270973 216.767716,131 Z" id="Path" fill="url(#linearGradient-4)"></path>
            </g>
        </g>
    </g>
</svg>